<svg width="112" height="11" viewBox="0 0 112 11" fill="none" xmlns="http://www.w3.org/2000/svg">
<path d="M0 10.8133V10.4415L0.302023 10.4117C0.694652 10.3721 0.981574 10.3126 1.16279 10.2332C1.344 10.1539 1.45978 10.0052 1.51011 9.78705C1.57052 9.56891 1.60073 9.23674 1.60073 8.79054V2.18682C1.60073 1.74063 1.57052 1.40846 1.51011 1.19032C1.45978 0.972175 1.344 0.823443 1.16279 0.744119C0.981574 0.664795 0.694652 0.605302 0.302023 0.56564L0 0.535893V0.164062L2.26518 0.208682L4.48504 0.164062V0.535893L4.06221 0.580513C3.75012 0.61026 3.5085 0.669753 3.33735 0.758992C3.16621 0.848231 3.0454 0.992006 2.97493 1.19032C2.91452 1.37871 2.88432 1.65139 2.88432 2.00834V8.21049C2.88432 8.7955 2.92962 9.2417 3.02023 9.54908C3.11084 9.85646 3.28198 10.0647 3.53367 10.1738C3.79542 10.2828 4.16792 10.3374 4.65115 10.3374H5.78374C6.60926 10.3374 7.22338 10.1242 7.62607 9.69781C8.03884 9.27144 8.28549 8.58727 8.36603 7.6453H8.69825L8.54724 10.8133L2.23497 10.7687L0 10.8133Z" fill="#00375C"/>
<path d="M20.1348 10.8133V10.4415L20.4368 10.4117C20.8294 10.3621 21.1163 10.2977 21.2976 10.2184C21.4788 10.139 21.5945 9.99032 21.6449 9.77217C21.7053 9.55403 21.7355 9.22682 21.7355 8.79054V2.18682C21.7355 1.74063 21.7053 1.41341 21.6449 1.20519C21.5945 0.987048 21.4788 0.838316 21.2976 0.758992C21.1163 0.669753 20.8294 0.605302 20.4368 0.56564L20.1348 0.535893V0.164062L22.3848 0.208682L24.6198 0.164062V0.535893L24.3178 0.56564C23.9352 0.605302 23.6483 0.669753 23.457 0.758992C23.2758 0.838316 23.155 0.987048 23.0946 1.20519C23.0442 1.41341 23.0191 1.74063 23.0191 2.18682V8.79054C23.0191 9.22682 23.0442 9.55403 23.0946 9.77217C23.155 9.99032 23.2758 10.139 23.457 10.2184C23.6483 10.2977 23.9352 10.3621 24.3178 10.4117L24.6198 10.4415V10.8133L22.3848 10.7687L20.1348 10.8133Z" fill="#00375C"/>
<path d="M40.9521 10.9174L36.9956 1.74063C36.8547 1.39358 36.6785 1.13578 36.4671 0.967217C36.2557 0.788739 35.9839 0.664795 35.6516 0.595386L35.3496 0.535893V0.164062L37.5997 0.208682L39.8497 0.164062V0.535893L39.3967 0.580513C38.9235 0.620175 38.6115 0.76395 38.4604 1.01184C38.3195 1.24981 38.3447 1.59189 38.5359 2.03809L41.7978 9.65319H41.3901L44.516 2.02322C44.6972 1.57702 44.7274 1.23989 44.6066 1.01184C44.4959 0.783781 44.219 0.644964 43.776 0.595386L43.2475 0.535893V0.164062L45.3617 0.208682L46.8718 0.164062V0.521022L46.5244 0.595386C46.2929 0.644964 46.0865 0.724288 45.9053 0.833358C45.7341 0.942429 45.5831 1.09612 45.4523 1.29443C45.3214 1.48282 45.1905 1.73071 45.0596 2.03809L41.4354 10.9174H40.9521Z" fill="#00375C"/>
<path d="M63.1444 10.9318C62.3793 10.9318 61.6745 10.798 61.0302 10.5303C60.396 10.2625 59.8423 9.88575 59.3691 9.39989C58.906 8.90411 58.5436 8.32406 58.2818 7.65972C58.0301 6.98546 57.9043 6.25172 57.9043 5.45848C57.9043 4.66524 58.0301 3.93645 58.2818 3.27211C58.5436 2.60777 58.906 2.03268 59.3691 1.54682C59.8423 1.05104 60.396 0.669295 61.0302 0.401577C61.6745 0.133859 62.3793 0 63.1444 0C63.9095 0 64.6092 0.133859 65.2434 0.401577C65.8878 0.669295 66.4415 1.05104 66.9046 1.54682C67.3777 2.03268 67.7402 2.60777 67.9918 3.27211C68.2536 3.93645 68.3845 4.66524 68.3845 5.45848C68.3845 6.25172 68.2536 6.98546 67.9918 7.65972C67.7402 8.32406 67.3777 8.90411 66.9046 9.39989C66.4415 9.88575 65.8878 10.2625 65.2434 10.5303C64.6092 10.798 63.9095 10.9318 63.1444 10.9318ZM63.1444 10.4856C65.6109 10.4856 66.8442 8.80992 66.8442 5.45848C66.8442 2.11696 65.6109 0.446198 63.1444 0.446198C60.6779 0.446198 59.4446 2.11696 59.4446 5.45848C59.4446 8.80992 60.6779 10.4856 63.1444 10.4856Z" fill="#00375C"/>
<path d="M88.8172 10.9323C88.3037 10.9323 87.901 10.7736 87.6091 10.4563C87.3171 10.1291 87.1258 9.63336 87.0352 8.96902C86.9345 8.1857 86.7483 7.5511 86.4765 7.06525C86.2147 6.56947 85.8624 6.20756 85.4194 5.9795C84.9764 5.74153 84.4227 5.62254 83.7583 5.62254H83.0183V5.22096H84.3774C85.3036 5.22096 85.9681 5.03753 86.3708 4.67065C86.7835 4.30378 86.9899 3.71381 86.9899 2.90074C86.9899 2.1075 86.7936 1.52744 86.401 1.16057C86.0184 0.783781 85.4194 0.595386 84.6039 0.595386H83.1089V8.79054C83.1089 9.23674 83.1341 9.56891 83.1844 9.78705C83.2448 10.0052 83.3656 10.1539 83.5469 10.2332C83.7381 10.3126 84.0251 10.3721 84.4076 10.4117L84.7096 10.4415V10.8133L82.4596 10.7687L80.2246 10.8133V10.4415L80.5266 10.4117C80.9193 10.3721 81.2062 10.3126 81.3874 10.2332C81.5686 10.144 81.6844 9.99032 81.7347 9.77217C81.7951 9.55403 81.8253 9.22682 81.8253 8.79054V2.18682C81.8253 1.74063 81.7951 1.40846 81.7347 1.19032C81.6844 0.972175 81.5686 0.823443 81.3874 0.744119C81.2062 0.664795 80.9193 0.605302 80.5266 0.56564L80.2246 0.535893V0.164062L82.4596 0.208682H84.5737C85.8322 0.208682 86.7886 0.431781 87.4429 0.877978C88.0973 1.31426 88.4245 1.95877 88.4245 2.8115C88.4245 3.59482 88.1527 4.2195 87.6091 4.68553C87.0755 5.15156 86.2902 5.4391 85.2533 5.54817L85.2684 5.50356C86.104 5.50356 86.7785 5.73657 87.2919 6.2026C87.8054 6.66863 88.1275 7.35775 88.2584 8.26998C88.3692 8.96406 88.5302 9.49454 88.7416 9.86141C88.9631 10.2184 89.2299 10.3969 89.542 10.3969C89.6729 10.3969 89.8692 10.3423 90.1309 10.2332L90.2669 10.5902C90.0856 10.6894 89.8591 10.7687 89.5873 10.8282C89.3256 10.8976 89.0688 10.9323 88.8172 10.9323Z" fill="#00375C"/>
<path d="M100.158 10.8128V10.4409L100.294 10.4261C100.657 10.3864 100.954 10.317 101.185 10.2178C101.417 10.1187 101.613 9.96996 101.774 9.77165C101.935 9.56342 102.086 9.28579 102.227 8.93875L105.912 0.133789H106.365L109.959 8.93875C110.17 9.45435 110.392 9.82122 110.623 10.0394C110.865 10.2476 111.177 10.3715 111.56 10.4112L111.862 10.4409V10.8128L109.989 10.7682L107.573 10.8128V10.4409L107.875 10.4112C108.378 10.3616 108.68 10.2327 108.781 10.0245C108.892 9.80635 108.846 9.43948 108.645 8.92387L105.595 1.35339H105.957L102.786 8.92387C102.635 9.29075 102.554 9.5783 102.544 9.78652C102.534 9.98483 102.615 10.1286 102.786 10.2178C102.957 10.3071 103.229 10.3715 103.601 10.4112L103.903 10.4409V10.8128L101.985 10.7682L100.158 10.8128ZM103.526 6.99035L103.722 6.51441H107.769L107.95 6.99035H103.526Z" fill="#00375C"/>
</svg>
