<svg width="87" height="66" viewBox="0 0 87 66" fill="none" xmlns="http://www.w3.org/2000/svg">
<path d="M66.5635 0C66.6108 0.629173 66.6357 1.26497 66.6357 1.90625C66.6356 15.744 55.4178 26.9618 41.5801 26.9619C27.7422 26.9619 16.5235 15.7441 16.5234 1.90625C16.5234 1.265 16.5474 0.62914 16.5947 0C17.5685 12.9477 28.3833 23.1504 41.5801 23.1504C54.7767 23.1502 65.5897 12.9475 66.5635 0Z" fill="white"/>
<path d="M0.0514874 38.5721C0.351193 38.0992 0.670042 37.6334 1.00987 37.1769C8.34007 27.3314 22.2643 25.2923 32.1099 32.6224C41.9555 39.9527 43.9946 53.8768 36.6644 63.7224C36.3259 64.177 35.973 64.6146 35.6075 65.0357C41.7672 55.3087 39.4766 42.326 30.0899 35.3372C20.7011 28.347 7.60315 29.8772 0.0514874 38.5721Z" fill="white"/>
<path d="M51.3701 65.0514C45.1993 55.3227 47.4884 42.3312 56.8799 35.3391C66.2651 28.3517 79.3556 29.8781 86.9085 38.5643C86.6113 38.0959 86.2954 37.6344 85.9587 37.1822C78.6285 27.3366 64.7043 25.2974 54.8587 32.6277C45.0132 39.9579 42.974 53.8821 50.3042 63.7277C50.6454 64.186 51.0013 64.627 51.3701 65.0514Z" fill="white"/>
</svg>
