<svg width="112" height="11" viewBox="0 0 112 11" fill="none" xmlns="http://www.w3.org/2000/svg">
<g clip-path="url(#clip0_190_51)">
<path d="M1 10.8133V10.4415L1.30202 10.4117C1.69465 10.3721 1.98157 10.3126 2.16279 10.2332C2.344 10.1539 2.45978 10.0052 2.51011 9.78705C2.57052 9.56891 2.60073 9.23674 2.60073 8.79054V2.18682C2.60073 1.74063 2.57052 1.40846 2.51011 1.19032C2.45978 0.972175 2.344 0.823443 2.16279 0.744119C1.98157 0.664795 1.69465 0.605302 1.30202 0.56564L1 0.535894V0.164062L3.26518 0.208682L5.48504 0.164062V0.535894L5.06221 0.580513C4.75012 0.61026 4.5085 0.669753 4.33735 0.758992C4.16621 0.848231 4.0454 0.992006 3.97493 1.19032C3.91452 1.37871 3.88432 1.65139 3.88432 2.00834V8.21049C3.88432 8.7955 3.92962 9.2417 4.02023 9.54908C4.11084 9.85646 4.28198 10.0647 4.53367 10.1738C4.79542 10.2828 5.16792 10.3374 5.65115 10.3374H6.78374C7.60926 10.3374 8.22338 10.1242 8.62607 9.69781C9.03884 9.27144 9.28549 8.58727 9.36603 7.6453H9.69825L9.54724 10.8133L3.23497 10.7687L1 10.8133Z" fill="white"/>
<path d="M21.1348 10.8133V10.4415L21.4368 10.4117C21.8294 10.3621 22.1163 10.2977 22.2976 10.2184C22.4788 10.139 22.5945 9.99032 22.6449 9.77218C22.7053 9.55403 22.7355 9.22682 22.7355 8.79054V2.18682C22.7355 1.74063 22.7053 1.41341 22.6449 1.20519C22.5945 0.987048 22.4788 0.838316 22.2976 0.758992C22.1163 0.669753 21.8294 0.605302 21.4368 0.56564L21.1348 0.535894V0.164062L23.3848 0.208682L25.6198 0.164062V0.535894L25.3178 0.56564C24.9352 0.605302 24.6483 0.669753 24.457 0.758992C24.2758 0.838316 24.155 0.987048 24.0946 1.20519C24.0442 1.41341 24.0191 1.74063 24.0191 2.18682V8.79054C24.0191 9.22682 24.0442 9.55403 24.0946 9.77218C24.155 9.99032 24.2758 10.139 24.457 10.2184C24.6483 10.2977 24.9352 10.3621 25.3178 10.4117L25.6198 10.4415V10.8133L23.3848 10.7687L21.1348 10.8133Z" fill="white"/>
<path d="M41.9521 10.9174L37.9956 1.74063C37.8547 1.39358 37.6785 1.13578 37.4671 0.967217C37.2557 0.788739 36.9839 0.664795 36.6516 0.595386L36.3496 0.535894V0.164062L38.5997 0.208682L40.8497 0.164062V0.535894L40.3967 0.580513C39.9235 0.620175 39.6115 0.76395 39.4604 1.01184C39.3195 1.24981 39.3447 1.59189 39.5359 2.03809L42.7978 9.65319H42.3901L45.516 2.02322C45.6972 1.57702 45.7274 1.23989 45.6066 1.01184C45.4959 0.783781 45.219 0.644964 44.776 0.595386L44.2475 0.535894V0.164062L46.3617 0.208682L47.8718 0.164062V0.521022L47.5244 0.595386C47.2929 0.644964 47.0865 0.724288 46.9053 0.833358C46.7341 0.942429 46.5831 1.09612 46.4523 1.29443C46.3214 1.48282 46.1905 1.73071 46.0596 2.03809L42.4354 10.9174H41.9521Z" fill="white"/>
<path d="M64.1444 10.9318C63.3793 10.9318 62.6745 10.798 62.0302 10.5303C61.396 10.2625 60.8423 9.88575 60.3691 9.39989C59.906 8.90411 59.5436 8.32406 59.2818 7.65972C59.0301 6.98546 58.9043 6.25172 58.9043 5.45848C58.9043 4.66524 59.0301 3.93645 59.2818 3.27211C59.5436 2.60777 59.906 2.03268 60.3691 1.54682C60.8423 1.05104 61.396 0.669295 62.0302 0.401577C62.6745 0.133859 63.3793 0 64.1444 0C64.9095 0 65.6092 0.133859 66.2434 0.401577C66.8878 0.669295 67.4415 1.05104 67.9046 1.54682C68.3777 2.03268 68.7402 2.60777 68.9918 3.27211C69.2536 3.93645 69.3845 4.66524 69.3845 5.45848C69.3845 6.25172 69.2536 6.98546 68.9918 7.65972C68.7402 8.32406 68.3777 8.90411 67.9046 9.39989C67.4415 9.88575 66.8878 10.2625 66.2434 10.5303C65.6092 10.798 64.9095 10.9318 64.1444 10.9318ZM64.1444 10.4856C66.6109 10.4856 67.8442 8.80992 67.8442 5.45848C67.8442 2.11696 66.6109 0.446198 64.1444 0.446198C61.6779 0.446198 60.4446 2.11696 60.4446 5.45848C60.4446 8.80992 61.6779 10.4856 64.1444 10.4856Z" fill="white"/>
<path d="M89.8172 10.9323C89.3037 10.9323 88.901 10.7736 88.6091 10.4563C88.3171 10.1291 88.1258 9.63336 88.0352 8.96902C87.9345 8.1857 87.7483 7.5511 87.4765 7.06525C87.2147 6.56947 86.8624 6.20756 86.4194 5.9795C85.9764 5.74153 85.4227 5.62254 84.7583 5.62254H84.0183V5.22096H85.3774C86.3036 5.22096 86.9681 5.03753 87.3708 4.67065C87.7835 4.30378 87.9899 3.71381 87.9899 2.90074C87.9899 2.1075 87.7936 1.52744 87.401 1.16057C87.0184 0.783781 86.4194 0.595386 85.6039 0.595386H84.1089V8.79054C84.1089 9.23674 84.1341 9.56891 84.1844 9.78705C84.2448 10.0052 84.3656 10.1539 84.5469 10.2332C84.7381 10.3126 85.0251 10.3721 85.4076 10.4117L85.7096 10.4415V10.8133L83.4596 10.7687L81.2246 10.8133V10.4415L81.5266 10.4117C81.9193 10.3721 82.2062 10.3126 82.3874 10.2332C82.5686 10.144 82.6844 9.99032 82.7347 9.77218C82.7951 9.55403 82.8253 9.22682 82.8253 8.79054V2.18682C82.8253 1.74063 82.7951 1.40846 82.7347 1.19032C82.6844 0.972175 82.5686 0.823443 82.3874 0.744119C82.2062 0.664795 81.9193 0.605302 81.5266 0.56564L81.2246 0.535894V0.164062L83.4596 0.208682H85.5737C86.8322 0.208682 87.7886 0.431781 88.4429 0.877978C89.0973 1.31426 89.4245 1.95877 89.4245 2.8115C89.4245 3.59482 89.1527 4.2195 88.6091 4.68553C88.0755 5.15156 87.2902 5.4391 86.2533 5.54818L86.2684 5.50356C87.104 5.50356 87.7785 5.73657 88.2919 6.2026C88.8054 6.66863 89.1275 7.35775 89.2584 8.26998C89.3692 8.96406 89.5302 9.49454 89.7416 9.86141C89.9631 10.2184 90.2299 10.3969 90.542 10.3969C90.6729 10.3969 90.8692 10.3423 91.1309 10.2332L91.2669 10.5902C91.0856 10.6894 90.8591 10.7687 90.5873 10.8282C90.3256 10.8976 90.0688 10.9323 89.8172 10.9323Z" fill="white"/>
<path d="M101.158 10.8128V10.4409L101.294 10.4261C101.657 10.3864 101.954 10.317 102.185 10.2178C102.417 10.1187 102.613 9.96996 102.774 9.77165C102.935 9.56342 103.086 9.28579 103.227 8.93875L106.912 0.133789H107.365L110.959 8.93875C111.17 9.45435 111.392 9.82122 111.623 10.0394C111.865 10.2476 112.177 10.3715 112.56 10.4112L112.862 10.4409V10.8128L110.989 10.7682L108.573 10.8128V10.4409L108.875 10.4112C109.378 10.3616 109.68 10.2327 109.781 10.0245C109.892 9.80635 109.846 9.43948 109.645 8.92387L106.595 1.35339H106.957L103.786 8.92387C103.635 9.29075 103.554 9.5783 103.544 9.78652C103.534 9.98483 103.615 10.1286 103.786 10.2178C103.957 10.3071 104.229 10.3715 104.601 10.4112L104.903 10.4409V10.8128L102.985 10.7682L101.158 10.8128ZM104.526 6.99035L104.722 6.51441H108.769L108.95 6.99035H104.526Z" fill="white"/>
</g>
<defs>
<clipPath id="clip0_190_51">
<rect width="112" height="11" fill="white"/>
</clipPath>
</defs>
</svg>
