<svg width="169" height="31" viewBox="0 0 169 31" fill="none" xmlns="http://www.w3.org/2000/svg">
<path d="M34.4395 0C34.464 0.298823 34.4766 0.600696 34.4766 0.905273C34.4766 7.47396 28.6733 12.7988 21.5146 12.7988C14.3562 12.7987 8.55273 7.47386 8.55273 0.905273C8.55274 0.600714 8.56533 0.298805 8.58984 0C9.09385 6.14573 14.688 10.9881 21.5146 10.9883C28.3414 10.9883 33.9354 6.1458 34.4395 0Z" fill="white"/>
<path d="M0.030548 18.3181C0.186714 18.0917 0.350141 17.8671 0.527412 17.6486C4.31947 12.975 11.5226 12.0071 16.6159 15.4866C21.7091 18.9662 22.764 25.5758 18.972 30.2493C18.7966 30.4655 18.6113 30.6716 18.4218 30.8718C21.609 26.2545 20.4273 20.0933 15.5713 16.7756C10.7125 13.4562 3.93646 14.1867 0.030548 18.3181Z" fill="white"/>
<path d="M26.5818 30.8747C23.392 26.257 24.5734 20.0934 29.4306 16.775C34.2871 13.4572 41.0589 14.1857 44.9657 18.3119C44.8111 18.0882 44.6501 17.8659 44.4749 17.65C40.683 12.9765 33.4797 12.0087 28.3865 15.4881C23.2932 18.9676 22.2383 25.5771 26.0303 30.2507C26.2062 30.4674 26.3918 30.674 26.5818 30.8747Z" fill="white"/>
<g clip-path="url(#clip0_192_77)">
<path d="M58 19.8133V19.4415L58.302 19.4117C58.6947 19.3721 58.9816 19.3126 59.1628 19.2332C59.344 19.1539 59.4598 19.0052 59.5101 18.787C59.5705 18.5689 59.6007 18.2367 59.6007 17.7905V11.1868C59.6007 10.7406 59.5705 10.4085 59.5101 10.1903C59.4598 9.97218 59.344 9.82344 59.1628 9.74412C58.9816 9.66479 58.6947 9.6053 58.302 9.56564L58 9.53589V9.16406L60.2652 9.20868L62.485 9.16406V9.53589L62.0622 9.58051C61.7501 9.61026 61.5085 9.66975 61.3374 9.75899C61.1662 9.84823 61.0454 9.99201 60.9749 10.1903C60.9145 10.3787 60.8843 10.6514 60.8843 11.0083V17.2105C60.8843 17.7955 60.9296 18.2417 61.0202 18.5491C61.1108 18.8565 61.282 19.0647 61.5337 19.1738C61.7954 19.2828 62.1679 19.3374 62.6512 19.3374H63.7837C64.6093 19.3374 65.2234 19.1242 65.6261 18.6978C66.0388 18.2714 66.2855 17.5873 66.366 16.6453H66.6983L66.5472 19.8133L60.235 19.7687L58 19.8133Z" fill="white"/>
<path d="M78.1348 19.8133V19.4415L78.4368 19.4117C78.8294 19.3621 79.1163 19.2977 79.2976 19.2184C79.4788 19.139 79.5945 18.9903 79.6449 18.7722C79.7053 18.554 79.7355 18.2268 79.7355 17.7905V11.1868C79.7355 10.7406 79.7053 10.4134 79.6449 10.2052C79.5945 9.98705 79.4788 9.83832 79.2976 9.75899C79.1163 9.66975 78.8294 9.6053 78.4368 9.56564L78.1348 9.53589V9.16406L80.3848 9.20868L82.6198 9.16406V9.53589L82.3178 9.56564C81.9352 9.6053 81.6483 9.66975 81.457 9.75899C81.2758 9.83832 81.155 9.98705 81.0946 10.2052C81.0442 10.4134 81.0191 10.7406 81.0191 11.1868V17.7905C81.0191 18.2268 81.0442 18.554 81.0946 18.7722C81.155 18.9903 81.2758 19.139 81.457 19.2184C81.6483 19.2977 81.9352 19.3621 82.3178 19.4117L82.6198 19.4415V19.8133L80.3848 19.7687L78.1348 19.8133Z" fill="white"/>
<path d="M98.9521 19.9174L94.9956 10.7406C94.8547 10.3936 94.6785 10.1358 94.4671 9.96722C94.2557 9.78874 93.9839 9.66479 93.6516 9.59539L93.3496 9.53589V9.16406L95.5997 9.20868L97.8497 9.16406V9.53589L97.3967 9.58051C96.9235 9.62018 96.6115 9.76395 96.4604 10.0118C96.3195 10.2498 96.3447 10.5919 96.5359 11.0381L99.7978 18.6532H99.3901L102.516 11.0232C102.697 10.577 102.727 10.2399 102.607 10.0118C102.496 9.78378 102.219 9.64496 101.776 9.59539L101.247 9.53589V9.16406L103.362 9.20868L104.872 9.16406V9.52102L104.524 9.59539C104.293 9.64496 104.087 9.72429 103.905 9.83336C103.734 9.94243 103.583 10.0961 103.452 10.2944C103.321 10.4828 103.191 10.7307 103.06 11.0381L99.4354 19.9174H98.9521Z" fill="white"/>
<path d="M121.144 19.9318C120.379 19.9318 119.675 19.798 119.03 19.5303C118.396 19.2625 117.842 18.8857 117.369 18.3999C116.906 17.9041 116.544 17.3241 116.282 16.6597C116.03 15.9855 115.904 15.2517 115.904 14.4585C115.904 13.6652 116.03 12.9365 116.282 12.2721C116.544 11.6078 116.906 11.0327 117.369 10.5468C117.842 10.051 118.396 9.6693 119.03 9.40158C119.675 9.13386 120.379 9 121.144 9C121.91 9 122.609 9.13386 123.243 9.40158C123.888 9.6693 124.441 10.051 124.905 10.5468C125.378 11.0327 125.74 11.6078 125.992 12.2721C126.254 12.9365 126.384 13.6652 126.384 14.4585C126.384 15.2517 126.254 15.9855 125.992 16.6597C125.74 17.3241 125.378 17.9041 124.905 18.3999C124.441 18.8857 123.888 19.2625 123.243 19.5303C122.609 19.798 121.91 19.9318 121.144 19.9318ZM121.144 19.4856C123.611 19.4856 124.844 17.8099 124.844 14.4585C124.844 11.117 123.611 9.4462 121.144 9.4462C118.678 9.4462 117.445 11.117 117.445 14.4585C117.445 17.8099 118.678 19.4856 121.144 19.4856Z" fill="white"/>
<path d="M146.817 19.9323C146.304 19.9323 145.901 19.7736 145.609 19.4563C145.317 19.1291 145.126 18.6334 145.035 17.969C144.935 17.1857 144.748 16.5511 144.476 16.0652C144.215 15.5695 143.862 15.2076 143.419 14.9795C142.976 14.7415 142.423 14.6225 141.758 14.6225H141.018V14.221H142.377C143.304 14.221 143.968 14.0375 144.371 13.6707C144.784 13.3038 144.99 12.7138 144.99 11.9007C144.99 11.1075 144.794 10.5274 144.401 10.1606C144.018 9.78378 143.419 9.59539 142.604 9.59539H141.109V17.7905C141.109 18.2367 141.134 18.5689 141.184 18.787C141.245 19.0052 141.366 19.1539 141.547 19.2332C141.738 19.3126 142.025 19.3721 142.408 19.4117L142.71 19.4415V19.8133L140.46 19.7687L138.225 19.8133V19.4415L138.527 19.4117C138.919 19.3721 139.206 19.3126 139.387 19.2332C139.569 19.144 139.684 18.9903 139.735 18.7722C139.795 18.554 139.825 18.2268 139.825 17.7905V11.1868C139.825 10.7406 139.795 10.4085 139.735 10.1903C139.684 9.97218 139.569 9.82344 139.387 9.74412C139.206 9.66479 138.919 9.6053 138.527 9.56564L138.225 9.53589V9.16406L140.46 9.20868H142.574C143.832 9.20868 144.789 9.43178 145.443 9.87798C146.097 10.3143 146.425 10.9588 146.425 11.8115C146.425 12.5948 146.153 13.2195 145.609 13.6855C145.075 14.1516 144.29 14.4391 143.253 14.5482L143.268 14.5036C144.104 14.5036 144.778 14.7366 145.292 15.2026C145.805 15.6686 146.128 16.3578 146.258 17.27C146.369 17.9641 146.53 18.4945 146.742 18.8614C146.963 19.2184 147.23 19.3969 147.542 19.3969C147.673 19.3969 147.869 19.3423 148.131 19.2332L148.267 19.5902C148.086 19.6894 147.859 19.7687 147.587 19.8282C147.326 19.8976 147.069 19.9323 146.817 19.9323Z" fill="white"/>
<path d="M158.158 19.8128V19.4409L158.294 19.4261C158.657 19.3864 158.954 19.317 159.185 19.2178C159.417 19.1187 159.613 18.97 159.774 18.7716C159.935 18.5634 160.086 18.2858 160.227 17.9387L163.912 9.13379H164.365L167.959 17.9387C168.17 18.4544 168.392 18.8212 168.623 19.0394C168.865 19.2476 169.177 19.3715 169.56 19.4112L169.862 19.4409V19.8128L167.989 19.7682L165.573 19.8128V19.4409L165.875 19.4112C166.378 19.3616 166.68 19.2327 166.781 19.0245C166.892 18.8064 166.846 18.4395 166.645 17.9239L163.595 10.3534H163.957L160.786 17.9239C160.635 18.2907 160.554 18.5783 160.544 18.7865C160.534 18.9848 160.615 19.1286 160.786 19.2178C160.957 19.3071 161.229 19.3715 161.601 19.4112L161.903 19.4409V19.8128L159.985 19.7682L158.158 19.8128ZM161.526 15.9904L161.722 15.5144H165.769L165.95 15.9904H161.526Z" fill="white"/>
</g>
<defs>
<clipPath id="clip0_192_77">
<rect width="112" height="11" fill="white" transform="translate(57 9)"/>
</clipPath>
</defs>
</svg>
