<svg width="112" height="93" viewBox="0 0 112 93" fill="none" xmlns="http://www.w3.org/2000/svg">
<path d="M80.4912 0C80.5413 0.665911 80.5674 1.33886 80.5674 2.01758C80.5673 16.6684 68.6898 28.5457 54.0381 28.5459C39.3863 28.5459 27.5079 16.6685 27.5078 2.01758C27.5078 1.33886 27.5339 0.665902 27.584 0C28.6146 13.7089 40.0648 24.5117 54.0381 24.5117C68.0113 24.5116 79.4606 13.7088 80.4912 0Z" fill="#00375C"/>
<path d="M10.0543 40.8552C10.3746 40.3489 10.717 39.8507 11.0807 39.3622C18.8421 28.9384 33.5848 26.7797 44.0093 34.5406C54.4336 42.3015 56.5922 57.0428 48.8313 67.4667C48.4759 67.9441 48.1056 68.4045 47.722 68.847C54.2348 58.5496 51.807 44.8115 41.8717 37.4149C31.9356 30.0177 18.0762 31.6323 10.0786 40.8259L10.0543 40.8552Z" fill="#00375C"/>
<path d="M64.4037 68.8719C57.871 58.5717 60.2947 44.8177 70.2381 37.4151C80.1777 30.0155 94.0417 31.6346 102.038 40.8369C101.722 40.3383 101.386 39.847 101.028 39.3657C93.2665 28.9417 78.5233 26.7825 68.0987 34.5433C57.674 42.3043 55.5151 57.0468 63.2765 67.4709C63.6376 67.9557 64.0135 68.4229 64.4037 68.8719Z" fill="#00375C"/>
<g clip-path="url(#clip0_192_76)">
<path d="M0 92.8123V92.4405L0.302023 92.4107C0.694652 92.3711 0.981574 92.3116 1.16279 92.2323C1.344 92.1529 1.45978 92.0042 1.51011 91.7861C1.57052 91.5679 1.60073 91.2358 1.60073 90.7896V84.1858C1.60073 83.7396 1.57052 83.4075 1.51011 83.1893C1.45978 82.9712 1.344 82.8225 1.16279 82.7431C0.981574 82.6638 0.694652 82.6043 0.302023 82.5647L0 82.5349V82.1631L2.26518 82.2077L4.48504 82.1631V82.5349L4.06221 82.5795C3.75012 82.6093 3.5085 82.6688 3.33735 82.758C3.16621 82.8473 3.0454 82.991 2.97493 83.1893C2.91452 83.3777 2.88432 83.6504 2.88432 84.0074V90.2095C2.88432 90.7945 2.92962 91.2407 3.02023 91.5481C3.11084 91.8555 3.28198 92.0637 3.53367 92.1728C3.79542 92.2818 4.16792 92.3364 4.65115 92.3364H5.78374C6.60926 92.3364 7.22338 92.1232 7.62607 91.6968C8.03884 91.2705 8.28549 90.5863 8.36603 89.6443H8.69825L8.54724 92.8123L2.23497 92.7677L0 92.8123Z" fill="#00375C"/>
<path d="M20.1348 92.8123V92.4405L20.4368 92.4107C20.8294 92.3612 21.1163 92.2967 21.2976 92.2174C21.4788 92.1381 21.5945 91.9893 21.6449 91.7712C21.7053 91.5531 21.7355 91.2258 21.7355 90.7896V84.1858C21.7355 83.7396 21.7053 83.4124 21.6449 83.2042C21.5945 82.9861 21.4788 82.8373 21.2976 82.758C21.1163 82.6688 20.8294 82.6043 20.4368 82.5647L20.1348 82.5349V82.1631L22.3848 82.2077L24.6198 82.1631V82.5349L24.3178 82.5647C23.9352 82.6043 23.6483 82.6688 23.457 82.758C23.2758 82.8373 23.155 82.9861 23.0946 83.2042C23.0442 83.4124 23.0191 83.7396 23.0191 84.1858V90.7896C23.0191 91.2258 23.0442 91.5531 23.0946 91.7712C23.155 91.9893 23.2758 92.1381 23.457 92.2174C23.6483 92.2967 23.9352 92.3612 24.3178 92.4107L24.6198 92.4405V92.8123L22.3848 92.7677L20.1348 92.8123Z" fill="#00375C"/>
<path d="M40.9521 92.9164L36.9956 83.7396C36.8547 83.3926 36.6785 83.1348 36.4671 82.9662C36.2557 82.7878 35.9839 82.6638 35.6516 82.5944L35.3496 82.5349V82.1631L37.5997 82.2077L39.8497 82.1631V82.5349L39.3967 82.5795C38.9235 82.6192 38.6115 82.763 38.4604 83.0109C38.3195 83.2488 38.3447 83.5909 38.5359 84.0371L41.7978 91.6522H41.3901L44.516 84.0222C44.6972 83.576 44.7274 83.2389 44.6066 83.0109C44.4959 82.7828 44.219 82.644 43.776 82.5944L43.2475 82.5349V82.1631L45.3617 82.2077L46.8718 82.1631V82.52L46.5244 82.5944C46.2929 82.644 46.0865 82.7233 45.9053 82.8324C45.7341 82.9415 45.5831 83.0951 45.4523 83.2935C45.3214 83.4818 45.1905 83.7297 45.0596 84.0371L41.4354 92.9164H40.9521Z" fill="#00375C"/>
<path d="M63.1444 92.9309C62.3793 92.9309 61.6745 92.797 61.0302 92.5293C60.396 92.2616 59.8423 91.8848 59.3691 91.3989C58.906 90.9031 58.5436 90.3231 58.2818 89.6587C58.0301 88.9845 57.9043 88.2507 57.9043 87.4575C57.9043 86.6643 58.0301 85.9355 58.2818 85.2711C58.5436 84.6068 58.906 84.0317 59.3691 83.5458C59.8423 83.0501 60.396 82.6683 61.0302 82.4006C61.6745 82.1329 62.3793 81.999 63.1444 81.999C63.9095 81.999 64.6092 82.1329 65.2434 82.4006C65.8878 82.6683 66.4415 83.0501 66.9046 83.5458C67.3777 84.0317 67.7402 84.6068 67.9918 85.2711C68.2536 85.9355 68.3845 86.6643 68.3845 87.4575C68.3845 88.2507 68.2536 88.9845 67.9918 89.6587C67.7402 90.3231 67.3777 90.9031 66.9046 91.3989C66.4415 91.8848 65.8878 92.2616 65.2434 92.5293C64.6092 92.797 63.9095 92.9309 63.1444 92.9309ZM63.1444 92.4847C65.6109 92.4847 66.8442 90.8089 66.8442 87.4575C66.8442 84.116 65.6109 82.4452 63.1444 82.4452C60.6779 82.4452 59.4446 84.116 59.4446 87.4575C59.4446 90.8089 60.6779 92.4847 63.1444 92.4847Z" fill="#00375C"/>
<path d="M88.8172 92.9313C88.3037 92.9313 87.901 92.7727 87.6091 92.4554C87.3171 92.1282 87.1258 91.6324 87.0352 90.968C86.9345 90.1847 86.7483 89.5501 86.4765 89.0643C86.2147 88.5685 85.8624 88.2066 85.4194 87.9785C84.9764 87.7406 84.4227 87.6216 83.7583 87.6216H83.0183V87.22H84.3774C85.3036 87.22 85.9681 87.0366 86.3708 86.6697C86.7835 86.3028 86.9899 85.7128 86.9899 84.8998C86.9899 84.1065 86.7936 83.5265 86.401 83.1596C86.0184 82.7828 85.4194 82.5944 84.6039 82.5944H83.1089V90.7896C83.1089 91.2358 83.1341 91.5679 83.1844 91.7861C83.2448 92.0042 83.3656 92.1529 83.5469 92.2323C83.7381 92.3116 84.0251 92.3711 84.4076 92.4107L84.7096 92.4405V92.8123L82.4596 92.7677L80.2246 92.8123V92.4405L80.5266 92.4107C80.9193 92.3711 81.2062 92.3116 81.3874 92.2323C81.5686 92.143 81.6844 91.9893 81.7347 91.7712C81.7951 91.5531 81.8253 91.2258 81.8253 90.7896V84.1858C81.8253 83.7396 81.7951 83.4075 81.7347 83.1893C81.6844 82.9712 81.5686 82.8225 81.3874 82.7431C81.2062 82.6638 80.9193 82.6043 80.5266 82.5647L80.2246 82.5349V82.1631L82.4596 82.2077H84.5737C85.8322 82.2077 86.7886 82.4308 87.4429 82.877C88.0973 83.3133 88.4245 83.9578 88.4245 84.8105C88.4245 85.5938 88.1527 86.2185 87.6091 86.6846C87.0755 87.1506 86.2902 87.4381 85.2533 87.5472L85.2684 87.5026C86.104 87.5026 86.7785 87.7356 87.2919 88.2016C87.8054 88.6676 88.1275 89.3568 88.2584 90.269C88.3692 90.9631 88.5302 91.4936 88.7416 91.8604C88.9631 92.2174 89.2299 92.3959 89.542 92.3959C89.6729 92.3959 89.8692 92.3413 90.1309 92.2323L90.2669 92.5892C90.0856 92.6884 89.8591 92.7677 89.5873 92.8272C89.3256 92.8966 89.0688 92.9313 88.8172 92.9313Z" fill="#00375C"/>
<path d="M100.158 92.8118V92.44L100.294 92.4251C100.657 92.3854 100.954 92.316 101.185 92.2169C101.417 92.1177 101.613 91.969 101.774 91.7707C101.935 91.5624 102.086 91.2848 102.227 90.9378L105.912 82.1328H106.365L109.959 90.9378C110.17 91.4534 110.392 91.8202 110.623 92.0384C110.865 92.2466 111.177 92.3706 111.56 92.4102L111.862 92.44V92.8118L109.989 92.7672L107.573 92.8118V92.44L107.875 92.4102C108.378 92.3606 108.68 92.2317 108.781 92.0235C108.892 91.8054 108.846 91.4385 108.645 90.9229L105.595 83.3524H105.957L102.786 90.9229C102.635 91.2898 102.554 91.5773 102.544 91.7855C102.534 91.9839 102.615 92.1276 102.786 92.2169C102.957 92.3061 103.229 92.3706 103.601 92.4102L103.903 92.44V92.8118L101.985 92.7672L100.158 92.8118ZM103.526 88.9894L103.722 88.5134H107.769L107.95 88.9894H103.526Z" fill="#00375C"/>
</g>
<defs>
<clipPath id="clip0_192_76">
<rect width="112" height="11" fill="white" transform="translate(0 81.999)"/>
</clipPath>
</defs>
</svg>
