<svg width="112" height="91" viewBox="0 0 112 91" fill="none" xmlns="http://www.w3.org/2000/svg">
<path d="M79.7939 0C79.844 0.665911 79.8701 1.33886 79.8701 2.01758C79.87 16.6684 67.9925 28.5457 53.3408 28.5459C38.689 28.5459 26.8107 16.6685 26.8105 2.01758C26.8105 1.33886 26.8366 0.665902 26.8867 0C27.9173 13.7089 39.3675 24.5117 53.3408 24.5117C67.314 24.5116 78.7634 13.7088 79.7939 0Z" fill="white"/>
<path d="M9.35699 40.8552C9.67731 40.3489 10.0197 39.8507 10.3834 39.3622C18.1449 28.9384 32.8875 26.7797 43.3121 34.5406C53.7363 42.3015 55.895 57.0428 48.134 67.4667C47.7786 67.9441 47.4084 68.4045 47.0247 68.847C53.5375 58.5496 51.1097 44.8115 41.1744 37.4149C31.2384 30.0177 17.379 31.6323 9.3813 40.8259L9.35699 40.8552Z" fill="white"/>
<path d="M63.7064 68.8719C57.1737 58.5717 59.5974 44.8177 69.5408 37.4151C79.4804 30.0155 93.3444 31.6346 101.341 40.8369C101.025 40.3383 100.689 39.847 100.331 39.3657C92.5693 28.9417 77.8261 26.7825 67.4014 34.5433C56.9767 42.3043 54.8179 57.0468 62.5792 67.4709C62.9403 67.9557 63.3163 68.4229 63.7064 68.8719Z" fill="white"/>
<path d="M0 90.8133V90.4415L0.302023 90.4117C0.694652 90.3721 0.981574 90.3126 1.16279 90.2332C1.344 90.1539 1.45978 90.0052 1.51011 89.787C1.57052 89.5689 1.60073 89.2367 1.60073 88.7905V82.1868C1.60073 81.7406 1.57052 81.4085 1.51011 81.1903C1.45978 80.9722 1.344 80.8234 1.16279 80.7441C0.981574 80.6648 0.694652 80.6053 0.302023 80.5656L0 80.5359V80.1641L2.26518 80.2087L4.48504 80.1641V80.5359L4.06221 80.5805C3.75012 80.6103 3.5085 80.6698 3.33735 80.759C3.16621 80.8482 3.0454 80.992 2.97493 81.1903C2.91452 81.3787 2.88432 81.6514 2.88432 82.0083V88.2105C2.88432 88.7955 2.92962 89.2417 3.02023 89.5491C3.11084 89.8565 3.28198 90.0647 3.53367 90.1738C3.79542 90.2828 4.16792 90.3374 4.65115 90.3374H5.78374C6.60926 90.3374 7.22338 90.1242 7.62607 89.6978C8.03884 89.2714 8.28549 88.5873 8.36603 87.6453H8.69825L8.54724 90.8133L2.23497 90.7687L0 90.8133Z" fill="white"/>
<path d="M20.1348 90.8133V90.4415L20.4368 90.4117C20.8294 90.3621 21.1163 90.2977 21.2976 90.2184C21.4788 90.139 21.5945 89.9903 21.6449 89.7722C21.7053 89.554 21.7355 89.2268 21.7355 88.7905V82.1868C21.7355 81.7406 21.7053 81.4134 21.6449 81.2052C21.5945 80.987 21.4788 80.8383 21.2976 80.759C21.1163 80.6698 20.8294 80.6053 20.4368 80.5656L20.1348 80.5359V80.1641L22.3848 80.2087L24.6198 80.1641V80.5359L24.3178 80.5656C23.9352 80.6053 23.6483 80.6698 23.457 80.759C23.2758 80.8383 23.155 80.987 23.0946 81.2052C23.0442 81.4134 23.0191 81.7406 23.0191 82.1868V88.7905C23.0191 89.2268 23.0442 89.554 23.0946 89.7722C23.155 89.9903 23.2758 90.139 23.457 90.2184C23.6483 90.2977 23.9352 90.3621 24.3178 90.4117L24.6198 90.4415V90.8133L22.3848 90.7687L20.1348 90.8133Z" fill="white"/>
<path d="M40.9521 90.9174L36.9956 81.7406C36.8547 81.3936 36.6785 81.1358 36.4671 80.9672C36.2557 80.7887 35.9839 80.6648 35.6516 80.5954L35.3496 80.5359V80.1641L37.5997 80.2087L39.8497 80.1641V80.5359L39.3967 80.5805C38.9235 80.6202 38.6115 80.7639 38.4604 81.0118C38.3195 81.2498 38.3447 81.5919 38.5359 82.0381L41.7978 89.6532H41.3901L44.516 82.0232C44.6972 81.577 44.7274 81.2399 44.6066 81.0118C44.4959 80.7838 44.219 80.645 43.776 80.5954L43.2475 80.5359V80.1641L45.3617 80.2087L46.8718 80.1641V80.521L46.5244 80.5954C46.2929 80.645 46.0865 80.7243 45.9053 80.8334C45.7341 80.9424 45.5831 81.0961 45.4523 81.2944C45.3214 81.4828 45.1905 81.7307 45.0596 82.0381L41.4354 90.9174H40.9521Z" fill="white"/>
<path d="M63.1444 90.9318C62.3793 90.9318 61.6745 90.798 61.0302 90.5303C60.396 90.2625 59.8423 89.8857 59.3691 89.3999C58.906 88.9041 58.5436 88.3241 58.2818 87.6597C58.0301 86.9855 57.9043 86.2517 57.9043 85.4585C57.9043 84.6652 58.0301 83.9365 58.2818 83.2721C58.5436 82.6078 58.906 82.0327 59.3691 81.5468C59.8423 81.051 60.396 80.6693 61.0302 80.4016C61.6745 80.1339 62.3793 80 63.1444 80C63.9095 80 64.6092 80.1339 65.2434 80.4016C65.8878 80.6693 66.4415 81.051 66.9046 81.5468C67.3777 82.0327 67.7402 82.6078 67.9918 83.2721C68.2536 83.9365 68.3845 84.6652 68.3845 85.4585C68.3845 86.2517 68.2536 86.9855 67.9918 87.6597C67.7402 88.3241 67.3777 88.9041 66.9046 89.3999C66.4415 89.8857 65.8878 90.2625 65.2434 90.5303C64.6092 90.798 63.9095 90.9318 63.1444 90.9318ZM63.1444 90.4856C65.6109 90.4856 66.8442 88.8099 66.8442 85.4585C66.8442 82.117 65.6109 80.4462 63.1444 80.4462C60.6779 80.4462 59.4446 82.117 59.4446 85.4585C59.4446 88.8099 60.6779 90.4856 63.1444 90.4856Z" fill="white"/>
<path d="M88.8172 90.9323C88.3037 90.9323 87.901 90.7736 87.6091 90.4563C87.3171 90.1291 87.1258 89.6334 87.0352 88.969C86.9345 88.1857 86.7483 87.5511 86.4765 87.0652C86.2147 86.5695 85.8624 86.2076 85.4194 85.9795C84.9764 85.7415 84.4227 85.6225 83.7583 85.6225H83.0183V85.221H84.3774C85.3036 85.221 85.9681 85.0375 86.3708 84.6707C86.7835 84.3038 86.9899 83.7138 86.9899 82.9007C86.9899 82.1075 86.7936 81.5274 86.401 81.1606C86.0184 80.7838 85.4194 80.5954 84.6039 80.5954H83.1089V88.7905C83.1089 89.2367 83.1341 89.5689 83.1844 89.787C83.2448 90.0052 83.3656 90.1539 83.5469 90.2332C83.7381 90.3126 84.0251 90.3721 84.4076 90.4117L84.7096 90.4415V90.8133L82.4596 90.7687L80.2246 90.8133V90.4415L80.5266 90.4117C80.9193 90.3721 81.2062 90.3126 81.3874 90.2332C81.5686 90.144 81.6844 89.9903 81.7347 89.7722C81.7951 89.554 81.8253 89.2268 81.8253 88.7905V82.1868C81.8253 81.7406 81.7951 81.4085 81.7347 81.1903C81.6844 80.9722 81.5686 80.8234 81.3874 80.7441C81.2062 80.6648 80.9193 80.6053 80.5266 80.5656L80.2246 80.5359V80.1641L82.4596 80.2087H84.5737C85.8322 80.2087 86.7886 80.4318 87.4429 80.878C88.0973 81.3143 88.4245 81.9588 88.4245 82.8115C88.4245 83.5948 88.1527 84.2195 87.6091 84.6855C87.0755 85.1516 86.2902 85.4391 85.2533 85.5482L85.2684 85.5036C86.104 85.5036 86.7785 85.7366 87.2919 86.2026C87.8054 86.6686 88.1275 87.3578 88.2584 88.27C88.3692 88.9641 88.5302 89.4945 88.7416 89.8614C88.9631 90.2184 89.2299 90.3969 89.542 90.3969C89.6729 90.3969 89.8692 90.3423 90.1309 90.2332L90.2669 90.5902C90.0856 90.6894 89.8591 90.7687 89.5873 90.8282C89.3256 90.8976 89.0688 90.9323 88.8172 90.9323Z" fill="white"/>
<path d="M100.158 90.8128V90.4409L100.294 90.4261C100.657 90.3864 100.954 90.317 101.185 90.2178C101.417 90.1187 101.613 89.97 101.774 89.7716C101.935 89.5634 102.086 89.2858 102.227 88.9387L105.912 80.1338H106.365L109.959 88.9387C110.17 89.4544 110.392 89.8212 110.623 90.0394C110.865 90.2476 111.177 90.3715 111.56 90.4112L111.862 90.4409V90.8128L109.989 90.7682L107.573 90.8128V90.4409L107.875 90.4112C108.378 90.3616 108.68 90.2327 108.781 90.0245C108.892 89.8064 108.846 89.4395 108.645 88.9239L105.595 81.3534H105.957L102.786 88.9239C102.635 89.2907 102.554 89.5783 102.544 89.7865C102.534 89.9848 102.615 90.1286 102.786 90.2178C102.957 90.3071 103.229 90.3715 103.601 90.4112L103.903 90.4409V90.8128L101.985 90.7682L100.158 90.8128ZM103.526 86.9904L103.722 86.5144H107.769L107.95 86.9904H103.526Z" fill="white"/>
</svg>
