<svg width="165" height="31" viewBox="0 0 165 31" fill="none" xmlns="http://www.w3.org/2000/svg">
<path d="M31.6035 0C31.626 0.298718 31.6387 0.600804 31.6387 0.905273C31.6385 7.47379 26.3131 12.7988 19.7441 12.7988C13.1752 12.7988 7.84981 7.47376 7.84961 0.905273C7.84961 0.600833 7.86132 0.298691 7.88379 0C8.34585 6.14623 13.4793 10.9892 19.7441 10.9893C26.0089 10.9893 31.1414 6.14622 31.6035 0Z" fill="#00375C"/>
<path d="M0.0279848 18.3184C0.171462 18.0916 0.321737 17.8666 0.48463 17.6478C3.96436 12.9745 10.5735 12.0065 15.2472 15.4859C19.921 18.9654 20.8895 25.5748 17.4098 30.2483C17.2497 30.4633 17.081 30.669 16.9081 30.8682C19.8302 26.2512 18.7439 20.0918 14.2886 16.775C9.82968 13.4556 3.61203 14.1862 0.0279848 18.3184Z" fill="#00375C"/>
<path d="M24.3958 30.8786C21.4652 26.2604 22.5497 20.094 27.0084 16.7746C31.4647 13.4573 37.6775 14.1852 41.2625 18.3107C41.1206 18.0871 40.9722 17.8653 40.8115 17.6494C37.3317 12.9759 30.7227 12.008 26.0489 15.4875C21.3751 18.967 20.4065 25.5763 23.8862 30.2499C24.0487 30.4681 24.2201 30.6766 24.3958 30.8786Z" fill="#00375C"/>
<g clip-path="url(#clip0_192_78)">
<path d="M54 19.8133V19.4415L54.302 19.4117C54.6947 19.3721 54.9816 19.3126 55.1628 19.2332C55.344 19.1539 55.4598 19.0052 55.5101 18.787C55.5705 18.5689 55.6007 18.2367 55.6007 17.7905V11.1868C55.6007 10.7406 55.5705 10.4085 55.5101 10.1903C55.4598 9.97218 55.344 9.82344 55.1628 9.74412C54.9816 9.66479 54.6947 9.6053 54.302 9.56564L54 9.53589V9.16406L56.2652 9.20868L58.485 9.16406V9.53589L58.0622 9.58051C57.7501 9.61026 57.5085 9.66975 57.3374 9.75899C57.1662 9.84823 57.0454 9.99201 56.9749 10.1903C56.9145 10.3787 56.8843 10.6514 56.8843 11.0083V17.2105C56.8843 17.7955 56.9296 18.2417 57.0202 18.5491C57.1108 18.8565 57.282 19.0647 57.5337 19.1738C57.7954 19.2828 58.1679 19.3374 58.6512 19.3374H59.7837C60.6093 19.3374 61.2234 19.1242 61.6261 18.6978C62.0388 18.2714 62.2855 17.5873 62.366 16.6453H62.6983L62.5472 19.8133L56.235 19.7687L54 19.8133Z" fill="#00375C"/>
<path d="M74.1348 19.8133V19.4415L74.4368 19.4117C74.8294 19.3621 75.1163 19.2977 75.2976 19.2184C75.4788 19.139 75.5945 18.9903 75.6449 18.7722C75.7053 18.554 75.7355 18.2268 75.7355 17.7905V11.1868C75.7355 10.7406 75.7053 10.4134 75.6449 10.2052C75.5945 9.98705 75.4788 9.83832 75.2976 9.75899C75.1163 9.66975 74.8294 9.6053 74.4368 9.56564L74.1348 9.53589V9.16406L76.3848 9.20868L78.6198 9.16406V9.53589L78.3178 9.56564C77.9352 9.6053 77.6483 9.66975 77.457 9.75899C77.2758 9.83832 77.155 9.98705 77.0946 10.2052C77.0442 10.4134 77.0191 10.7406 77.0191 11.1868V17.7905C77.0191 18.2268 77.0442 18.554 77.0946 18.7722C77.155 18.9903 77.2758 19.139 77.457 19.2184C77.6483 19.2977 77.9352 19.3621 78.3178 19.4117L78.6198 19.4415V19.8133L76.3848 19.7687L74.1348 19.8133Z" fill="#00375C"/>
<path d="M94.9521 19.9174L90.9956 10.7406C90.8547 10.3936 90.6785 10.1358 90.4671 9.96722C90.2557 9.78874 89.9839 9.66479 89.6516 9.59539L89.3496 9.53589V9.16406L91.5997 9.20868L93.8497 9.16406V9.53589L93.3967 9.58051C92.9235 9.62018 92.6115 9.76395 92.4604 10.0118C92.3195 10.2498 92.3447 10.5919 92.5359 11.0381L95.7978 18.6532H95.3901L98.516 11.0232C98.6972 10.577 98.7274 10.2399 98.6066 10.0118C98.4959 9.78378 98.219 9.64496 97.776 9.59539L97.2475 9.53589V9.16406L99.3617 9.20868L100.872 9.16406V9.52102L100.524 9.59539C100.293 9.64496 100.087 9.72429 99.9053 9.83336C99.7341 9.94243 99.5831 10.0961 99.4523 10.2944C99.3214 10.4828 99.1905 10.7307 99.0596 11.0381L95.4354 19.9174H94.9521Z" fill="#00375C"/>
<path d="M117.144 19.9318C116.379 19.9318 115.675 19.798 115.03 19.5303C114.396 19.2625 113.842 18.8857 113.369 18.3999C112.906 17.9041 112.544 17.3241 112.282 16.6597C112.03 15.9855 111.904 15.2517 111.904 14.4585C111.904 13.6652 112.03 12.9365 112.282 12.2721C112.544 11.6078 112.906 11.0327 113.369 10.5468C113.842 10.051 114.396 9.6693 115.03 9.40158C115.675 9.13386 116.379 9 117.144 9C117.91 9 118.609 9.13386 119.243 9.40158C119.888 9.6693 120.441 10.051 120.905 10.5468C121.378 11.0327 121.74 11.6078 121.992 12.2721C122.254 12.9365 122.384 13.6652 122.384 14.4585C122.384 15.2517 122.254 15.9855 121.992 16.6597C121.74 17.3241 121.378 17.9041 120.905 18.3999C120.441 18.8857 119.888 19.2625 119.243 19.5303C118.609 19.798 117.91 19.9318 117.144 19.9318ZM117.144 19.4856C119.611 19.4856 120.844 17.8099 120.844 14.4585C120.844 11.117 119.611 9.4462 117.144 9.4462C114.678 9.4462 113.445 11.117 113.445 14.4585C113.445 17.8099 114.678 19.4856 117.144 19.4856Z" fill="#00375C"/>
<path d="M142.817 19.9323C142.304 19.9323 141.901 19.7736 141.609 19.4563C141.317 19.1291 141.126 18.6334 141.035 17.969C140.935 17.1857 140.748 16.5511 140.476 16.0652C140.215 15.5695 139.862 15.2076 139.419 14.9795C138.976 14.7415 138.423 14.6225 137.758 14.6225H137.018V14.221H138.377C139.304 14.221 139.968 14.0375 140.371 13.6707C140.784 13.3038 140.99 12.7138 140.99 11.9007C140.99 11.1075 140.794 10.5274 140.401 10.1606C140.018 9.78378 139.419 9.59539 138.604 9.59539H137.109V17.7905C137.109 18.2367 137.134 18.5689 137.184 18.787C137.245 19.0052 137.366 19.1539 137.547 19.2332C137.738 19.3126 138.025 19.3721 138.408 19.4117L138.71 19.4415V19.8133L136.46 19.7687L134.225 19.8133V19.4415L134.527 19.4117C134.919 19.3721 135.206 19.3126 135.387 19.2332C135.569 19.144 135.684 18.9903 135.735 18.7722C135.795 18.554 135.825 18.2268 135.825 17.7905V11.1868C135.825 10.7406 135.795 10.4085 135.735 10.1903C135.684 9.97218 135.569 9.82344 135.387 9.74412C135.206 9.66479 134.919 9.6053 134.527 9.56564L134.225 9.53589V9.16406L136.46 9.20868H138.574C139.832 9.20868 140.789 9.43178 141.443 9.87798C142.097 10.3143 142.425 10.9588 142.425 11.8115C142.425 12.5948 142.153 13.2195 141.609 13.6855C141.075 14.1516 140.29 14.4391 139.253 14.5482L139.268 14.5036C140.104 14.5036 140.778 14.7366 141.292 15.2026C141.805 15.6686 142.128 16.3578 142.258 17.27C142.369 17.9641 142.53 18.4945 142.742 18.8614C142.963 19.2184 143.23 19.3969 143.542 19.3969C143.673 19.3969 143.869 19.3423 144.131 19.2332L144.267 19.5902C144.086 19.6894 143.859 19.7687 143.587 19.8282C143.326 19.8976 143.069 19.9323 142.817 19.9323Z" fill="#00375C"/>
<path d="M154.158 19.8128V19.4409L154.294 19.4261C154.657 19.3864 154.954 19.317 155.185 19.2178C155.417 19.1187 155.613 18.97 155.774 18.7716C155.935 18.5634 156.086 18.2858 156.227 17.9387L159.912 9.13379H160.365L163.959 17.9387C164.17 18.4544 164.392 18.8212 164.623 19.0394C164.865 19.2476 165.177 19.3715 165.56 19.4112L165.862 19.4409V19.8128L163.989 19.7682L161.573 19.8128V19.4409L161.875 19.4112C162.378 19.3616 162.68 19.2327 162.781 19.0245C162.892 18.8064 162.846 18.4395 162.645 17.9239L159.595 10.3534H159.957L156.786 17.9239C156.635 18.2907 156.554 18.5783 156.544 18.7865C156.534 18.9848 156.615 19.1286 156.786 19.2178C156.957 19.3071 157.229 19.3715 157.601 19.4112L157.903 19.4409V19.8128L155.985 19.7682L154.158 19.8128ZM157.526 15.9904L157.722 15.5144H161.769L161.95 15.9904H157.526Z" fill="#00375C"/>
</g>
<defs>
<clipPath id="clip0_192_78">
<rect width="112" height="11" fill="white" transform="translate(53 9)"/>
</clipPath>
</defs>
</svg>
